<?xml version="1.0" encoding="UTF-8" standalone="no"?>
<!DOCTYPE svg PUBLIC "-//W3C//DTD SVG 1.1//EN" "http://www.w3.org/Graphics/SVG/1.1/DTD/svg11.dtd">
<svg xmlns="http://www.w3.org/2000/svg" version="1.1" viewBox="0.00 0.00 254.00 254.00">
<g stroke-width="2.00" fill="none" stroke-linecap="butt">
<path stroke="#7a2c15" vector-effect="non-scaling-stroke" d="
  M 170.30 116.66
  C 170.71 117.53 170.65 118.77 171.58 119.56
  Q 171.97 119.89 172.48 119.84
  C 192.04 118.02 210.96 115.44 227.20 108.95
  C 229.48 108.03 231.59 106.35 234.48 105.03
  Q 237.07 103.84 236.08 100.13
  Q 226.66 65.00 200.77 42.38
  C 165.56 11.63 112.83 5.73 72.00 29.24
  Q 30.00 53.43 17.79 101.03
  Q 17.51 102.12 17.53 103.75
  Q 17.53 104.27 18.01 104.46
  Q 18.57 104.68 21.81 106.99
  Q 25.92 109.91 33.10 111.92
  Q 54.76 117.96 80.80 119.86
  A 1.13 1.13 0.0 0 0 81.95 119.08
  Q 83.08 115.56 84.61 112.86
  C 99.85 85.96 134.64 79.39 158.15 99.98
  Q 165.45 106.38 170.30 116.66"
/>
<path stroke="#807f7b" vector-effect="non-scaling-stroke" d="
  M 159.46 135.50
  A 32.96 32.96 0.0 0 0 126.50 102.54
  A 32.96 32.96 0.0 0 0 93.54 135.50
  A 32.96 32.96 0.0 0 0 126.50 168.46
  A 32.96 32.96 0.0 0 0 159.46 135.50"
/>
<path stroke="#807f7b" vector-effect="non-scaling-stroke" d="
  M 238.67 119.68
  Q 238.67 119.45 238.46 119.56
  Q 228.43 124.90 217.07 127.60
  Q 196.78 132.42 174.69 134.28
  Q 174.40 134.30 174.40 134.59
  L 174.40 141.09
  A 0.16 0.16 0.0 0 0 174.57 141.25
  C 194.84 139.31 214.31 136.33 231.75 128.98
  Q 235.79 127.27 238.38 124.15
  A 1.26 1.24 -25.5 0 0 238.67 123.35
  L 238.67 119.68"
/>
<path stroke="#807f7b" vector-effect="non-scaling-stroke" d="
  M 16.64 127.32
  C 18.09 129.27 23.13 130.78 25.33 131.44
  Q 51.16 139.16 78.41 141.28
  Q 78.61 141.30 78.61 141.10
  L 78.61 134.68
  Q 78.61 134.44 78.37 134.42
  Q 68.49 133.61 54.96 131.59
  C 41.19 129.53 27.82 126.52 15.92 120.80
  Q 15.40 120.55 15.34 121.12
  Q 15.16 122.99 15.30 125.25
  C 15.35 125.92 16.07 126.55 16.64 127.32"
/>
<path stroke="#807f7b" vector-effect="non-scaling-stroke" d="
  M 22.31 146.63
  Q 21.69 146.48 17.27 145.50
  Q 16.71 145.37 16.81 145.94
  Q 22.70 178.88 45.01 202.89
  C 89.41 250.68 164.70 250.78 209.09 202.85
  Q 230.45 179.80 237.00 147.48
  Q 237.21 146.44 237.52 143.48
  Q 237.57 142.94 237.10 143.19
  Q 235.43 144.10 233.69 144.68
  C 213.23 151.59 192.01 154.69 170.07 156.77
  Q 169.58 156.81 169.34 157.25
  Q 161.05 172.63 145.97 179.36
  C 131.24 185.94 113.93 184.59 100.49 175.78
  Q 90.42 169.18 85.30 159.97
  Q 84.42 158.37 83.68 157.33
  Q 83.40 156.93 82.91 156.88
  Q 54.26 154.09 44.50 151.78
  Q 36.15 149.81 22.31 146.63"
/>
<path stroke="#fde5d8" vector-effect="non-scaling-stroke" d="
  M 140.09 119.86
  C 127.52 108.63 107.64 116.85 106.36 133.49
  Q 105.41 145.85 116.08 152.89
  Q 118.57 154.53 123.80 155.53
  C 132.97 157.28 141.59 151.62 145.49 143.52
  C 146.30 141.86 146.08 140.61 146.73 139.17
  C 147.98 136.38 146.84 130.65 145.57 128.26
  Q 145.25 127.65 144.36 125.33
  Q 143.41 122.83 140.09 119.86"
/>
<path stroke="#f79172" vector-effect="non-scaling-stroke" d="
  M 146.14 135.32
  A 19.51 19.51 0.0 0 0 126.63 115.81
  A 19.51 19.51 0.0 0 0 107.12 135.32
  A 19.51 19.51 0.0 0 0 126.63 154.83
  A 19.51 19.51 0.0 0 0 146.14 135.32"
/>
</g>
<path fill="#000000" d="
  M 253.84 127.00
  A 126.84 126.84 0.0 0 1 127.00 253.84
  A 126.84 126.84 0.0 0 1 0.16 127.00
  A 126.84 126.84 0.0 0 1 127.00 0.16
  A 126.84 126.84 0.0 0 1 253.84 127.00
  Z
  M 170.30 116.66
  C 170.71 117.53 170.65 118.77 171.58 119.56
  Q 171.97 119.89 172.48 119.84
  C 192.04 118.02 210.96 115.44 227.20 108.95
  C 229.48 108.03 231.59 106.35 234.48 105.03
  Q 237.07 103.84 236.08 100.13
  Q 226.66 65.00 200.77 42.38
  C 165.56 11.63 112.83 5.73 72.00 29.24
  Q 30.00 53.43 17.79 101.03
  Q 17.51 102.12 17.53 103.75
  Q 17.53 104.27 18.01 104.46
  Q 18.57 104.68 21.81 106.99
  Q 25.92 109.91 33.10 111.92
  Q 54.76 117.96 80.80 119.86
  A 1.13 1.13 0.0 0 0 81.95 119.08
  Q 83.08 115.56 84.61 112.86
  C 99.85 85.96 134.64 79.39 158.15 99.98
  Q 165.45 106.38 170.30 116.66
  Z
  M 159.46 135.50
  A 32.96 32.96 0.0 0 0 126.50 102.54
  A 32.96 32.96 0.0 0 0 93.54 135.50
  A 32.96 32.96 0.0 0 0 126.50 168.46
  A 32.96 32.96 0.0 0 0 159.46 135.50
  Z
  M 238.67 119.68
  Q 238.67 119.45 238.46 119.56
  Q 228.43 124.90 217.07 127.60
  Q 196.78 132.42 174.69 134.28
  Q 174.40 134.30 174.40 134.59
  L 174.40 141.09
  A 0.16 0.16 0.0 0 0 174.57 141.25
  C 194.84 139.31 214.31 136.33 231.75 128.98
  Q 235.79 127.27 238.38 124.15
  A 1.26 1.24 -25.5 0 0 238.67 123.35
  L 238.67 119.68
  Z
  M 16.64 127.32
  C 18.09 129.27 23.13 130.78 25.33 131.44
  Q 51.16 139.16 78.41 141.28
  Q 78.61 141.30 78.61 141.10
  L 78.61 134.68
  Q 78.61 134.44 78.37 134.42
  Q 68.49 133.61 54.96 131.59
  C 41.19 129.53 27.82 126.52 15.92 120.80
  Q 15.40 120.55 15.34 121.12
  Q 15.16 122.99 15.30 125.25
  C 15.35 125.92 16.07 126.55 16.64 127.32
  Z
  M 22.31 146.63
  Q 21.69 146.48 17.27 145.50
  Q 16.71 145.37 16.81 145.94
  Q 22.70 178.88 45.01 202.89
  C 89.41 250.68 164.70 250.78 209.09 202.85
  Q 230.45 179.80 237.00 147.48
  Q 237.21 146.44 237.52 143.48
  Q 237.57 142.94 237.10 143.19
  Q 235.43 144.10 233.69 144.68
  C 213.23 151.59 192.01 154.69 170.07 156.77
  Q 169.58 156.81 169.34 157.25
  Q 161.05 172.63 145.97 179.36
  C 131.24 185.94 113.93 184.59 100.49 175.78
  Q 90.42 169.18 85.30 159.97
  Q 84.42 158.37 83.68 157.33
  Q 83.40 156.93 82.91 156.88
  Q 54.26 154.09 44.50 151.78
  Q 36.15 149.81 22.31 146.63
  Z"
/>
<path fill="#f4572a" d="
  M 170.30 116.66
  Q 165.45 106.38 158.15 99.98
  C 134.64 79.39 99.85 85.96 84.61 112.86
  Q 83.08 115.56 81.95 119.08
  A 1.13 1.13 0.0 0 1 80.80 119.86
  Q 54.76 117.96 33.10 111.92
  Q 25.92 109.91 21.81 106.99
  Q 18.57 104.68 18.01 104.46
  Q 17.53 104.27 17.53 103.75
  Q 17.51 102.12 17.79 101.03
  Q 30.00 53.43 72.00 29.24
  C 112.83 5.73 165.56 11.63 200.77 42.38
  Q 226.66 65.00 236.08 100.13
  Q 237.07 103.84 234.48 105.03
  C 231.59 106.35 229.48 108.03 227.20 108.95
  C 210.96 115.44 192.04 118.02 172.48 119.84
  Q 171.97 119.89 171.58 119.56
  C 170.65 118.77 170.71 117.53 170.30 116.66
  Z"
/>
<path fill="#fffef5" d="
  M 159.46 135.50
  A 32.96 32.96 0.0 0 1 126.50 168.46
  A 32.96 32.96 0.0 0 1 93.54 135.50
  A 32.96 32.96 0.0 0 1 126.50 102.54
  A 32.96 32.96 0.0 0 1 159.46 135.50
  Z
  M 140.09 119.86
  C 127.52 108.63 107.64 116.85 106.36 133.49
  Q 105.41 145.85 116.08 152.89
  Q 118.57 154.53 123.80 155.53
  C 132.97 157.28 141.59 151.62 145.49 143.52
  C 146.30 141.86 146.08 140.61 146.73 139.17
  C 147.98 136.38 146.84 130.65 145.57 128.26
  Q 145.25 127.65 144.36 125.33
  Q 143.41 122.83 140.09 119.86
  Z"
/>
<path fill="#facbba" d="
  M 140.09 119.86
  Q 143.41 122.83 144.36 125.33
  Q 145.25 127.65 145.57 128.26
  C 146.84 130.65 147.98 136.38 146.73 139.17
  C 146.08 140.61 146.30 141.86 145.49 143.52
  C 141.59 151.62 132.97 157.28 123.80 155.53
  Q 118.57 154.53 116.08 152.89
  Q 105.41 145.85 106.36 133.49
  C 107.64 116.85 127.52 108.63 140.09 119.86
  Z
  M 146.14 135.32
  A 19.51 19.51 0.0 0 0 126.63 115.81
  A 19.51 19.51 0.0 0 0 107.12 135.32
  A 19.51 19.51 0.0 0 0 126.63 154.83
  A 19.51 19.51 0.0 0 0 146.14 135.32
  Z"
/>
<circle fill="#f4572a" cx="126.63" cy="135.32" r="19.51"/>
<path fill="#fffef5" d="
  M 238.67 119.68
  L 238.67 123.35
  A 1.26 1.24 -25.5 0 1 238.38 124.15
  Q 235.79 127.27 231.75 128.98
  C 214.31 136.33 194.84 139.31 174.57 141.25
  A 0.16 0.16 0.0 0 1 174.40 141.09
  L 174.40 134.59
  Q 174.40 134.30 174.69 134.28
  Q 196.78 132.42 217.07 127.60
  Q 228.43 124.90 238.46 119.56
  Q 238.67 119.45 238.67 119.68
  Z"
/>
<path fill="#fffef5" d="
  M 16.64 127.32
  C 16.07 126.55 15.35 125.92 15.30 125.25
  Q 15.16 122.99 15.34 121.12
  Q 15.40 120.55 15.92 120.80
  C 27.82 126.52 41.19 129.53 54.96 131.59
  Q 68.49 133.61 78.37 134.42
  Q 78.61 134.44 78.61 134.68
  L 78.61 141.10
  Q 78.61 141.30 78.41 141.28
  Q 51.16 139.16 25.33 131.44
  C 23.13 130.78 18.09 129.27 16.64 127.32
  Z"
/>
<path fill="#fffef5" d="
  M 22.31 146.63
  Q 36.15 149.81 44.50 151.78
  Q 54.26 154.09 82.91 156.88
  Q 83.40 156.93 83.68 157.33
  Q 84.42 158.37 85.30 159.97
  Q 90.42 169.18 100.49 175.78
  C 113.93 184.59 131.24 185.94 145.97 179.36
  Q 161.05 172.63 169.34 157.25
  Q 169.58 156.81 170.07 156.77
  C 192.01 154.69 213.23 151.59 233.69 144.68
  Q 235.43 144.10 237.10 143.19
  Q 237.57 142.94 237.52 143.48
  Q 237.21 146.44 237.00 147.48
  Q 230.45 179.80 209.09 202.85
  C 164.70 250.78 89.41 250.68 45.01 202.89
  Q 22.70 178.88 16.81 145.94
  Q 16.71 145.37 17.27 145.50
  Q 21.69 146.48 22.31 146.63
  Z"
/>
</svg>
