<?xml version="1.0" encoding="UTF-8" standalone="no"?>
<!DOCTYPE svg PUBLIC "-//W3C//DTD SVG 1.1//EN" "http://www.w3.org/Graphics/SVG/1.1/DTD/svg11.dtd">
<svg xmlns="http://www.w3.org/2000/svg" version="1.1" viewBox="0.00 0.00 254.00 332.00">
<g stroke-width="2.00" fill="none" stroke-linecap="butt">
<path stroke="#7a2c15" vector-effect="non-scaling-stroke" d="
  M 178.56 107.71
  Q 178.66 108.23 179.19 108.28
  C 198.92 110.24 220.32 113.37 238.34 121.63
  Q 239.12 121.99 239.07 121.13
  Q 236.94 86.04 216.02 58.77
  C 182.42 14.98 121.96 2.06 73.44 28.44
  C 40.01 46.61 18.05 80.44 15.12 118.51
  Q 14.94 120.88 15.21 122.49
  Q 15.31 123.05 15.80 122.78
  Q 27.20 116.51 44.76 113.02
  Q 64.41 109.12 83.90 107.69
  A 0.78 0.77 -86.0 0 0 84.60 107.07
  Q 88.12 89.87 100.81 79.16
  C 117.29 65.26 140.92 64.05 158.63 76.44
  Q 174.51 87.54 178.56 107.71"
/>
<path stroke="#807f7b" vector-effect="non-scaling-stroke" d="
  M 131.68 82.54
  C 117.03 82.46 104.67 91.76 100.03 105.60
  Q 99.85 106.13 100.41 106.11
  Q 118.66 105.46 131.55 105.53
  Q 144.44 105.61 162.68 106.46
  Q 163.24 106.49 163.07 105.95
  C 158.58 92.07 146.33 82.62 131.68 82.54"
/>
<path stroke="#807f7b" vector-effect="non-scaling-stroke" d="
  M 15.78 210.70
  Q 15.31 210.46 15.34 210.98
  C 19.22 278.86 82.30 328.35 149.34 314.52
  C 199.23 304.23 236.60 261.28 238.68 209.88
  Q 238.70 209.34 238.23 209.59
  C 224.26 217.13 207.99 220.18 190.75 222.53
  Q 185.86 223.19 170.38 224.77
  Q 169.89 224.82 169.78 225.30
  Q 164.65 248.12 145.24 258.73
  C 130.98 266.52 113.22 266.44 98.92 258.26
  Q 79.94 247.41 75.10 224.70
  Q 74.99 224.20 74.48 224.14
  C 57.50 222.08 41.13 219.78 25.62 214.85
  Q 20.63 213.26 15.78 210.70"
/>
<path stroke="#807f7b" vector-effect="non-scaling-stroke" d="
  M 122.31 249.46
  C 136.97 249.55 149.34 240.24 153.99 226.40
  Q 154.17 225.87 153.61 225.89
  Q 135.35 226.53 122.45 226.45
  Q 109.55 226.38 91.30 225.51
  Q 90.73 225.49 90.91 226.02
  C 95.39 239.92 107.65 249.37 122.31 249.46"
/>
</g>
<path fill="#000000" d="
  M 90.64 165.67
  Q 90.49 165.44 89.54 165.25
  Q 83.60 164.08 79.01 164.01
  Q 76.78 163.98 74.75 163.53
  C 71.74 162.86 68.17 163.27 65.44 162.37
  C 63.68 161.79 61.24 162.04 58.77 161.58
  Q 53.65 160.62 50.01 160.00
  Q 38.16 157.99 26.72 154.13
  C 20.26 151.95 14.04 148.69 7.58 145.38
  C 4.40 143.74 2.55 139.50 1.26 136.76
  Q 0.35 134.85 0.26 130.57
  Q -0.52 93.00 17.99 62.23
  C 68.89 -22.33 191.38 -19.86 238.66 66.85
  Q 254.90 96.64 253.75 132.78
  Q 253.58 138.03 251.28 142.06
  C 249.16 145.76 244.80 148.08 240.32 150.90
  Q 237.82 152.48 234.48 153.48
  C 221.93 157.23 211.68 159.85 198.76 161.78
  Q 193.82 162.52 175.73 164.25
  C 172.74 164.54 167.18 165.44 162.82 165.36
  Q 161.40 165.33 160.69 165.76
  Q 159.59 166.44 160.87 166.59
  Q 172.18 167.92 174.65 167.94
  C 177.96 167.97 180.60 168.99 183.98 168.97
  C 186.51 168.95 189.10 169.99 191.99 170.01
  Q 192.65 170.02 195.21 170.44
  Q 198.62 171.00 209.05 172.97
  Q 228.26 176.59 245.91 186.40
  C 249.58 188.44 250.38 190.61 252.51 194.74
  C 253.94 197.51 253.81 200.16 253.83 204.12
  C 254.15 271.01 202.50 327.19 135.53 331.52
  C 70.24 335.73 12.99 290.45 1.95 226.07
  Q -0.81 209.99 0.68 195.48
  C 1.05 191.81 3.96 187.26 7.50 185.09
  Q 9.64 183.78 16.53 179.37
  C 17.36 178.83 18.54 178.90 19.58 178.56
  Q 34.30 173.75 49.57 171.11
  Q 58.58 169.55 77.30 167.85
  C 80.87 167.53 85.79 166.72 90.13 166.62
  Q 91.24 166.59 90.64 165.67
  Z
  M 178.56 107.71
  Q 178.66 108.23 179.19 108.28
  C 198.92 110.24 220.32 113.37 238.34 121.63
  Q 239.12 121.99 239.07 121.13
  Q 236.94 86.04 216.02 58.77
  C 182.42 14.98 121.96 2.06 73.44 28.44
  C 40.01 46.61 18.05 80.44 15.12 118.51
  Q 14.94 120.88 15.21 122.49
  Q 15.31 123.05 15.80 122.78
  Q 27.20 116.51 44.76 113.02
  Q 64.41 109.12 83.90 107.69
  A 0.78 0.77 -86.0 0 0 84.60 107.07
  Q 88.12 89.87 100.81 79.16
  C 117.29 65.26 140.92 64.05 158.63 76.44
  Q 174.51 87.54 178.56 107.71
  Z
  M 131.68 82.54
  C 117.03 82.46 104.67 91.76 100.03 105.60
  Q 99.85 106.13 100.41 106.11
  Q 118.66 105.46 131.55 105.53
  Q 144.44 105.61 162.68 106.46
  Q 163.24 106.49 163.07 105.95
  C 158.58 92.07 146.33 82.62 131.68 82.54
  Z
  M 15.78 210.70
  Q 15.31 210.46 15.34 210.98
  C 19.22 278.86 82.30 328.35 149.34 314.52
  C 199.23 304.23 236.60 261.28 238.68 209.88
  Q 238.70 209.34 238.23 209.59
  C 224.26 217.13 207.99 220.18 190.75 222.53
  Q 185.86 223.19 170.38 224.77
  Q 169.89 224.82 169.78 225.30
  Q 164.65 248.12 145.24 258.73
  C 130.98 266.52 113.22 266.44 98.92 258.26
  Q 79.94 247.41 75.10 224.70
  Q 74.99 224.20 74.48 224.14
  C 57.50 222.08 41.13 219.78 25.62 214.85
  Q 20.63 213.26 15.78 210.70
  Z
  M 122.31 249.46
  C 136.97 249.55 149.34 240.24 153.99 226.40
  Q 154.17 225.87 153.61 225.89
  Q 135.35 226.53 122.45 226.45
  Q 109.55 226.38 91.30 225.51
  Q 90.73 225.49 90.91 226.02
  C 95.39 239.92 107.65 249.37 122.31 249.46
  Z"
/>
<path fill="#f4572a" d="
  M 178.56 107.71
  Q 174.51 87.54 158.63 76.44
  C 140.92 64.05 117.29 65.26 100.81 79.16
  Q 88.12 89.87 84.60 107.07
  A 0.78 0.77 -86.0 0 1 83.90 107.69
  Q 64.41 109.12 44.76 113.02
  Q 27.20 116.51 15.80 122.78
  Q 15.31 123.05 15.21 122.49
  Q 14.94 120.88 15.12 118.51
  C 18.05 80.44 40.01 46.61 73.44 28.44
  C 121.96 2.06 182.42 14.98 216.02 58.77
  Q 236.94 86.04 239.07 121.13
  Q 239.12 121.99 238.34 121.63
  C 220.32 113.37 198.92 110.24 179.19 108.28
  Q 178.66 108.23 178.56 107.71
  Z"
/>
<path fill="#fffef5" d="
  M 131.68 82.54
  C 146.33 82.62 158.58 92.07 163.07 105.95
  Q 163.24 106.49 162.68 106.46
  Q 144.44 105.61 131.55 105.53
  Q 118.66 105.46 100.41 106.11
  Q 99.85 106.13 100.03 105.60
  C 104.67 91.76 117.03 82.46 131.68 82.54
  Z"
/>
<path fill="#fffef5" d="
  M 15.78 210.70
  Q 20.63 213.26 25.62 214.85
  C 41.13 219.78 57.50 222.08 74.48 224.14
  Q 74.99 224.20 75.10 224.70
  Q 79.94 247.41 98.92 258.26
  C 113.22 266.44 130.98 266.52 145.24 258.73
  Q 164.65 248.12 169.78 225.30
  Q 169.89 224.82 170.38 224.77
  Q 185.86 223.19 190.75 222.53
  C 207.99 220.18 224.26 217.13 238.23 209.59
  Q 238.70 209.34 238.68 209.88
  C 236.60 261.28 199.23 304.23 149.34 314.52
  C 82.30 328.35 19.22 278.86 15.34 210.98
  Q 15.31 210.46 15.78 210.70
  Z"
/>
<path fill="#fffef5" d="
  M 122.45 226.45
  Q 135.35 226.53 153.61 225.89
  Q 154.17 225.87 153.99 226.40
  C 149.34 240.24 136.97 249.55 122.31 249.46
  C 107.65 249.37 95.39 239.92 90.91 226.02
  Q 90.73 225.49 91.30 225.51
  Q 109.55 226.38 122.45 226.45
  Z"
/>
</svg>
