<?xml version="1.0" encoding="UTF-8" standalone="no"?>
<!DOCTYPE svg PUBLIC "-//W3C//DTD SVG 1.1//EN" "http://www.w3.org/Graphics/SVG/1.1/DTD/svg11.dtd">
<svg xmlns="http://www.w3.org/2000/svg" version="1.1" viewBox="0.00 0.00 153.00 206.00">
<path fill="#000000" d="
  M 21.87 0.55
  L 131.13 0.55
  A 21.04 21.04 0.0 0 1 152.17 21.59
  L 152.17 184.41
  A 21.04 21.04 0.0 0 1 131.13 205.45
  L 21.87 205.45
  A 21.04 21.04 0.0 0 1 0.83 184.41
  L 0.83 21.59
  A 21.04 21.04 0.0 0 1 21.87 0.55
  Z
  M 142.17 21.61
  A 11.06 11.06 0.0 0 0 131.11 10.55
  L 21.89 10.55
  A 11.06 11.06 0.0 0 0 10.83 21.61
  L 10.83 184.39
  A 11.06 11.06 0.0 0 0 21.89 195.45
  L 131.11 195.45
  A 11.06 11.06 0.0 0 0 142.17 184.39
  L 142.17 21.61
  Z"
/>
<path fill="#000000" d="
  M 131.12 169.97
  A 15.03 15.03 0.0 0 1 116.09 185.00
  L 36.91 185.00
  A 15.03 15.03 0.0 0 1 21.88 169.97
  L 21.88 37.03
  A 15.03 15.03 0.0 0 1 36.91 22.00
  L 116.09 22.00
  A 15.03 15.03 0.0 0 1 131.12 37.03
  L 131.12 169.97
  Z
  M 77.26 124.67
  Q 78.24 124.67 80.50 125.76
  Q 90.66 130.64 99.88 134.95
  A 0.57 0.57 0.0 0 0 100.69 134.37
  Q 99.93 127.69 98.45 113.79
  C 98.07 110.21 97.56 108.64 99.83 106.08
  Q 106.25 98.86 114.92 88.74
  A 0.56 0.56 0.0 0 0 114.61 87.83
  L 91.65 82.87
  A 3.90 3.88 81.8 0 1 89.07 80.93
  Q 81.42 66.90 78.09 60.54
  Q 77.96 60.29 77.75 60.19
  Q 77.49 60.06 77.25 60.06
  Q 77.00 60.06 76.74 60.19
  Q 76.53 60.29 76.40 60.54
  Q 73.07 66.90 65.43 80.93
  A 3.90 3.88 -81.9 0 1 62.85 82.88
  L 39.89 87.85
  A 0.56 0.56 0.0 0 0 39.58 88.76
  Q 48.26 98.87 54.68 106.09
  C 56.95 108.65 56.44 110.22 56.06 113.80
  Q 54.59 127.70 53.83 134.38
  A 0.57 0.57 0.0 0 0 54.64 134.96
  Q 63.86 130.65 74.01 125.76
  Q 76.28 124.67 77.26 124.67
  Z"
/>
</svg>
