<?xml version="1.0" encoding="UTF-8" standalone="no"?>
<!DOCTYPE svg PUBLIC "-//W3C//DTD SVG 1.1//EN" "http://www.w3.org/Graphics/SVG/1.1/DTD/svg11.dtd">
<svg xmlns="http://www.w3.org/2000/svg" version="1.1" viewBox="0.00 0.00 114.00 95.00">
<path fill="#000000" d="
  M 114.00 68.26
  L 114.00 70.09
  Q 112.76 78.81 105.50 80.74
  C 97.56 82.85 94.17 76.81 90.20 71.82
  A 2.25 2.24 -35.3 0 0 87.24 71.32
  Q 85.72 72.28 84.76 74.26
  Q 83.58 76.65 77.66 91.38
  Q 76.36 94.60 71.94 94.53
  A 2.25 2.21 -34.2 0 1 71.28 94.41
  Q 63.29 91.50 50.77 86.04
  C 45.88 83.91 45.88 78.27 50.40 75.30
  Q 51.20 74.78 54.86 71.84
  Q 58.38 69.00 56.58 64.40
  Q 54.31 58.58 48.49 57.98
  C 44.62 57.59 39.34 59.41 39.08 63.98
  C 38.92 66.65 39.65 72.76 38.14 74.81
  C 35.55 78.32 32.32 77.17 28.75 75.22
  Q 24.60 72.95 12.80 65.95
  Q 9.91 64.24 9.16 61.53
  A 1.64 1.61 -42.7 0 1 9.21 60.52
  C 11.26 54.97 15.17 49.21 19.22 42.46
  C 20.99 39.52 20.80 36.68 16.78 36.15
  C 13.87 35.77 9.07 36.71 6.22 35.24
  Q 0.90 32.50 0.91 26.00
  Q 0.93 16.76 9.25 14.27
  Q 13.47 13.00 17.58 15.31
  C 19.77 16.55 22.19 20.73 24.48 23.14
  A 2.79 2.28 52.2 0 0 27.52 23.84
  Q 29.00 23.02 29.80 21.04
  Q 34.84 8.55 36.88 3.90
  Q 38.97 -0.88 44.26 1.02
  Q 46.97 1.99 62.00 8.15
  C 65.79 9.71 68.16 11.63 67.30 15.68
  C 66.26 20.59 56.38 22.62 57.16 27.79
  C 58.36 35.66 66.60 39.71 73.42 35.21
  A 3.11 3.10 76.2 0 0 74.79 32.94
  Q 75.14 29.29 75.13 24.69
  C 75.12 19.22 79.51 16.37 84.40 19.10
  Q 90.99 22.79 102.29 29.31
  Q 107.09 32.09 104.12 37.49
  Q 100.05 44.90 95.15 52.89
  Q 93.65 55.35 94.18 56.39
  C 94.97 57.96 96.22 58.92 98.26 58.90
  C 106.99 58.81 111.69 58.45 114.00 68.26
  Z"
/>
</svg>
