<?xml version="1.0" encoding="UTF-8" standalone="no"?>
<!DOCTYPE svg PUBLIC "-//W3C//DTD SVG 1.1//EN" "http://www.w3.org/Graphics/SVG/1.1/DTD/svg11.dtd">
<svg xmlns="http://www.w3.org/2000/svg" version="1.1" viewBox="0.00 0.00 498.00 316.00">
<g stroke-width="2.00" fill="none" stroke-linecap="butt">
<path stroke="#7a2c15" vector-effect="non-scaling-stroke" d="
  M 244.81 33.37
  L 244.81 90.19
  A 0.42 0.41 90.0 0 0 245.22 90.61
  L 263.49 90.61
  Q 263.83 90.61 263.83 90.27
  L 263.83 31.75
  Q 263.83 31.24 264.16 30.85
  C 264.52 30.42 264.64 30.14 264.64 29.47
  Q 264.69 22.88 264.62 16.11
  Q 264.61 15.54 264.05 15.54
  L 16.00 15.54
  A 0.46 0.46 0.0 0 0 15.54 16.00
  L 15.54 74.22
  A 0.19 0.19 0.0 0 0 15.73 74.41
  L 134.57 74.41
  Q 135.17 74.41 135.61 74.01
  L 180.64 33.44
  A 1.99 1.99 0.0 0 1 181.98 32.92
  L 244.34 32.92
  A 0.47 0.45 0.0 0 1 244.81 33.37"
/>
<path stroke="#7a2c15" vector-effect="non-scaling-stroke" d="
  M 482.17 300.46
  A 0.36 0.36 0.0 0 0 482.53 300.10
  L 482.53 93.28
  A 0.36 0.36 0.0 0 0 482.17 92.92
  L 359.03 92.92
  A 0.36 0.36 0.0 0 1 358.74 92.78
  L 323.32 45.52
  A 0.36 0.36 0.0 0 0 323.03 45.38
  L 279.20 45.38
  A 0.36 0.36 0.0 0 0 278.84 45.74
  L 278.84 300.10
  A 0.36 0.36 0.0 0 0 279.20 300.46
  L 482.17 300.46"
/>
<path stroke="#7a2c15" vector-effect="non-scaling-stroke" d="
  M 229.52 48.25
  A 0.35 0.35 0.0 0 0 229.17 47.90
  L 187.12 47.90
  A 0.35 0.35 0.0 0 0 186.89 47.99
  L 141.05 89.29
  A 0.35 0.35 0.0 0 1 140.82 89.38
  L 15.89 89.38
  A 0.35 0.35 0.0 0 0 15.54 89.73
  L 15.54 298.37
  A 0.35 0.35 0.0 0 0 15.89 298.72
  L 229.17 298.72
  A 0.35 0.35 0.0 0 0 229.52 298.37
  L 229.52 48.25"
/>
<path stroke="#7a2c15" vector-effect="non-scaling-stroke" d="
  M 263.82 105.92
  A 0.34 0.34 0.0 0 0 263.48 105.58
  L 244.94 105.58
  A 0.34 0.34 0.0 0 0 244.60 105.92
  L 244.60 298.36
  A 0.34 0.34 0.0 0 0 244.94 298.70
  L 263.48 298.70
  A 0.34 0.34 0.0 0 0 263.82 298.36
  L 263.82 105.92"
/>
<path stroke="#7a2c15" vector-effect="non-scaling-stroke" d="
  M 68.48 44.00
  A 23.48 23.48 0.0 0 0 45.00 20.52
  A 23.48 23.48 0.0 0 0 21.52 44.00
  A 23.48 23.48 0.0 0 0 45.00 67.48
  A 23.48 23.48 0.0 0 0 68.48 44.00"
/>
<path stroke="#3b416c" vector-effect="non-scaling-stroke" d="
  M 53.47 44.00
  A 8.47 8.47 0.0 0 0 45.00 35.53
  A 8.47 8.47 0.0 0 0 36.53 44.00
  A 8.47 8.47 0.0 0 0 45.00 52.47
  A 8.47 8.47 0.0 0 0 53.47 44.00"
/>
<path stroke="#7a2c15" vector-effect="non-scaling-stroke" d="
  M 453.17 119.78
  A 0.32 0.32 0.0 0 0 452.85 119.46
  L 299.39 119.46
  A 0.32 0.32 0.0 0 0 299.07 119.78
  L 299.07 192.34
  A 0.32 0.32 0.0 0 0 299.39 192.66
  L 452.85 192.66
  A 0.32 0.32 0.0 0 0 453.17 192.34
  L 453.17 119.78"
/>
<path stroke="#7a2c15" vector-effect="non-scaling-stroke" d="
  M 453.17 206.17
  A 0.36 0.36 0.0 0 0 452.81 205.81
  L 299.43 205.81
  A 0.36 0.36 0.0 0 0 299.07 206.17
  L 299.07 278.55
  A 0.36 0.36 0.0 0 0 299.43 278.91
  L 452.81 278.91
  A 0.36 0.36 0.0 0 0 453.17 278.55
  L 453.17 206.17"
/>
<path stroke="#7a2c15" vector-effect="non-scaling-stroke" d="
  M 204.59 119.84
  A 0.37 0.37 0.0 0 0 204.22 119.47
  L 37.90 119.47
  A 0.37 0.37 0.0 0 0 37.53 119.84
  L 37.53 267.42
  A 0.37 0.37 0.0 0 0 37.90 267.79
  L 204.22 267.79
  A 0.37 0.37 0.0 0 0 204.59 267.42
  L 204.59 119.84"
/>
<path stroke="#7f6200" vector-effect="non-scaling-stroke" d="
  M 189.59 134.79
  A 0.34 0.34 0.0 0 0 189.25 134.45
  L 52.89 134.45
  A 0.34 0.34 0.0 0 0 52.55 134.79
  L 52.55 252.47
  A 0.34 0.34 0.0 0 0 52.89 252.81
  L 189.25 252.81
  A 0.34 0.34 0.0 0 0 189.59 252.47
  L 189.59 134.79"
/>
<path stroke="#7f6200" vector-effect="non-scaling-stroke" d="
  M 154.48 159.45
  A 0.35 0.35 0.0 0 0 153.99 159.50
  L 117.06 204.35
  A 0.35 0.35 0.0 0 1 116.57 204.40
  L 82.87 178.28
  A 0.35 0.35 0.0 0 0 82.38 178.35
  L 73.61 189.65
  A 0.35 0.35 0.0 0 0 73.68 190.14
  L 118.89 225.18
  A 0.35 0.35 0.0 0 0 119.38 225.13
  L 165.57 169.04
  A 0.35 0.35 0.0 0 0 165.52 168.55
  L 154.48 159.45"
/>
<path stroke="#3b416c" vector-effect="non-scaling-stroke" d="
  M 332.1915 221.2558
  A 0.43 0.43 0.0 0 0 331.7622 220.8251
  L 314.5223 220.7950
  A 0.43 0.43 0.0 0 0 314.0915 221.2242
  L 314.0685 234.4042
  A 0.43 0.43 0.0 0 0 314.4978 234.8349
  L 331.7377 234.8650
  A 0.43 0.43 0.0 0 0 332.1685 234.4358
  L 332.1915 221.2558"
/>
<path stroke="#3b416c" vector-effect="non-scaling-stroke" d="
  M 368.59 221.21
  A 0.41 0.41 0.0 0 0 368.18 220.80
  L 347.58 220.80
  A 0.41 0.41 0.0 0 0 347.17 221.21
  L 347.17 234.45
  A 0.41 0.41 0.0 0 0 347.58 234.86
  L 368.18 234.86
  A 0.41 0.41 0.0 0 0 368.59 234.45
  L 368.59 221.21"
/>
<path stroke="#3b416c" vector-effect="non-scaling-stroke" d="
  M 404.24 221.18
  A 0.37 0.37 0.0 0 0 403.87 220.81
  L 383.95 220.81
  A 0.37 0.37 0.0 0 0 383.58 221.18
  L 383.58 234.50
  A 0.37 0.37 0.0 0 0 383.95 234.87
  L 403.87 234.87
  A 0.37 0.37 0.0 0 0 404.24 234.50
  L 404.24 221.18"
/>
<path stroke="#3b416c" vector-effect="non-scaling-stroke" d="
  M 438.17 221.19
  A 0.38 0.38 0.0 0 0 437.79 220.81
  L 419.61 220.81
  A 0.38 0.38 0.0 0 0 419.23 221.19
  L 419.23 234.49
  A 0.38 0.38 0.0 0 0 419.61 234.87
  L 437.79 234.87
  A 0.38 0.38 0.0 0 0 438.17 234.49
  L 438.17 221.19"
/>
<path stroke="#3b416c" vector-effect="non-scaling-stroke" d="
  M 332.20 250.33
  A 0.48 0.48 0.0 0 0 331.72 249.85
  L 314.56 249.85
  A 0.48 0.48 0.0 0 0 314.08 250.33
  L 314.08 263.43
  A 0.48 0.48 0.0 0 0 314.56 263.91
  L 331.72 263.91
  A 0.48 0.48 0.0 0 0 332.20 263.43
  L 332.20 250.33"
/>
<path stroke="#3b416c" vector-effect="non-scaling-stroke" d="
  M 368.59 250.27
  A 0.40 0.40 0.0 0 0 368.19 249.87
  L 347.57 249.87
  A 0.40 0.40 0.0 0 0 347.17 250.27
  L 347.17 263.51
  A 0.40 0.40 0.0 0 0 347.57 263.91
  L 368.19 263.91
  A 0.40 0.40 0.0 0 0 368.59 263.51
  L 368.59 250.27"
/>
<path stroke="#3b416c" vector-effect="non-scaling-stroke" d="
  M 404.26 250.23
  A 0.36 0.36 0.0 0 0 403.90 249.87
  L 383.94 249.87
  A 0.36 0.36 0.0 0 0 383.58 250.23
  L 383.58 263.55
  A 0.36 0.36 0.0 0 0 383.94 263.91
  L 403.90 263.91
  A 0.36 0.36 0.0 0 0 404.26 263.55
  L 404.26 250.23"
/>
<path stroke="#3b416c" vector-effect="non-scaling-stroke" d="
  M 438.19 250.24
  A 0.37 0.37 0.0 0 0 437.82 249.87
  L 419.60 249.87
  A 0.37 0.37 0.0 0 0 419.23 250.24
  L 419.23 263.54
  A 0.37 0.37 0.0 0 0 419.60 263.91
  L 437.82 263.91
  A 0.37 0.37 0.0 0 0 438.19 263.54
  L 438.19 250.24"
/>
</g>
<path fill="#000000" d="
  M 280.20 30.41
  L 330.21 30.41
  A 1.03 1.03 0.0 0 1 331.04 30.83
  L 366.15 77.65
  A 0.78 0.77 -17.5 0 0 366.78 77.97
  L 497.09 77.97
  A 0.45 0.45 0.0 0 1 497.54 78.42
  L 497.54 314.77
  A 0.68 0.68 0.0 0 1 496.86 315.45
  Q 387.91 315.47 278.84 315.44
  C 274.40 315.44 269.14 315.35 264.17 314.62
  Q 258.12 313.72 254.75 313.72
  Q 127.73 313.72 0.80 313.72
  A 0.25 0.25 0.0 0 1 0.55 313.47
  L 0.55 1.28
  A 0.73 0.73 0.0 0 1 1.28 0.55
  L 278.98 0.55
  A 0.67 0.67 0.0 0 1 279.65 1.22
  L 279.65 29.87
  Q 279.65 30.41 280.20 30.41
  Z
  M 244.81 33.37
  L 244.81 90.19
  A 0.42 0.41 90.0 0 0 245.22 90.61
  L 263.49 90.61
  Q 263.83 90.61 263.83 90.27
  L 263.83 31.75
  Q 263.83 31.24 264.16 30.85
  C 264.52 30.42 264.64 30.14 264.64 29.47
  Q 264.69 22.88 264.62 16.11
  Q 264.61 15.54 264.05 15.54
  L 16.00 15.54
  A 0.46 0.46 0.0 0 0 15.54 16.00
  L 15.54 74.22
  A 0.19 0.19 0.0 0 0 15.73 74.41
  L 134.57 74.41
  Q 135.17 74.41 135.61 74.01
  L 180.64 33.44
  A 1.99 1.99 0.0 0 1 181.98 32.92
  L 244.34 32.92
  A 0.47 0.45 0.0 0 1 244.81 33.37
  Z
  M 482.17 300.46
  A 0.36 0.36 0.0 0 0 482.53 300.10
  L 482.53 93.28
  A 0.36 0.36 0.0 0 0 482.17 92.92
  L 359.03 92.92
  A 0.36 0.36 0.0 0 1 358.74 92.78
  L 323.32 45.52
  A 0.36 0.36 0.0 0 0 323.03 45.38
  L 279.20 45.38
  A 0.36 0.36 0.0 0 0 278.84 45.74
  L 278.84 300.10
  A 0.36 0.36 0.0 0 0 279.20 300.46
  L 482.17 300.46
  Z
  M 229.52 48.25
  A 0.35 0.35 0.0 0 0 229.17 47.90
  L 187.12 47.90
  A 0.35 0.35 0.0 0 0 186.89 47.99
  L 141.05 89.29
  A 0.35 0.35 0.0 0 1 140.82 89.38
  L 15.89 89.38
  A 0.35 0.35 0.0 0 0 15.54 89.73
  L 15.54 298.37
  A 0.35 0.35 0.0 0 0 15.89 298.72
  L 229.17 298.72
  A 0.35 0.35 0.0 0 0 229.52 298.37
  L 229.52 48.25
  Z
  M 263.82 105.92
  A 0.34 0.34 0.0 0 0 263.48 105.58
  L 244.94 105.58
  A 0.34 0.34 0.0 0 0 244.60 105.92
  L 244.60 298.36
  A 0.34 0.34 0.0 0 0 244.94 298.70
  L 263.48 298.70
  A 0.34 0.34 0.0 0 0 263.82 298.36
  L 263.82 105.92
  Z"
/>
<path fill="#f4572a" d="
  M 244.81 33.37
  A 0.47 0.45 -0.0 0 0 244.34 32.92
  L 181.98 32.92
  A 1.99 1.99 0.0 0 0 180.64 33.44
  L 135.61 74.01
  Q 135.17 74.41 134.57 74.41
  L 15.73 74.41
  A 0.19 0.19 0.0 0 1 15.54 74.22
  L 15.54 16.00
  A 0.46 0.46 0.0 0 1 16.00 15.54
  L 264.05 15.54
  Q 264.61 15.54 264.62 16.11
  Q 264.69 22.88 264.64 29.47
  C 264.64 30.14 264.52 30.42 264.16 30.85
  Q 263.83 31.24 263.83 31.75
  L 263.83 90.27
  Q 263.83 90.61 263.49 90.61
  L 245.22 90.61
  A 0.42 0.41 -90.0 0 1 244.81 90.19
  L 244.81 33.37
  Z
  M 68.48 44.00
  A 23.48 23.48 0.0 0 0 45.00 20.52
  A 23.48 23.48 0.0 0 0 21.52 44.00
  A 23.48 23.48 0.0 0 0 45.00 67.48
  A 23.48 23.48 0.0 0 0 68.48 44.00
  Z"
/>
<path fill="#000000" d="
  M 68.48 44.00
  A 23.48 23.48 0.0 0 1 45.00 67.48
  A 23.48 23.48 0.0 0 1 21.52 44.00
  A 23.48 23.48 0.0 0 1 45.00 20.52
  A 23.48 23.48 0.0 0 1 68.48 44.00
  Z
  M 53.47 44.00
  A 8.47 8.47 0.0 0 0 45.00 35.53
  A 8.47 8.47 0.0 0 0 36.53 44.00
  A 8.47 8.47 0.0 0 0 45.00 52.47
  A 8.47 8.47 0.0 0 0 53.47 44.00
  Z"
/>
<circle fill="#7682d8" cx="45.00" cy="44.00" r="8.47"/>
<path fill="#f4572a" d="
  M 482.17 300.46
  L 279.20 300.46
  A 0.36 0.36 0.0 0 1 278.84 300.10
  L 278.84 45.74
  A 0.36 0.36 0.0 0 1 279.20 45.38
  L 323.03 45.38
  A 0.36 0.36 0.0 0 1 323.32 45.52
  L 358.74 92.78
  A 0.36 0.36 0.0 0 0 359.03 92.92
  L 482.17 92.92
  A 0.36 0.36 0.0 0 1 482.53 93.28
  L 482.53 300.10
  A 0.36 0.36 0.0 0 1 482.17 300.46
  Z
  M 453.17 119.78
  A 0.32 0.32 0.0 0 0 452.85 119.46
  L 299.39 119.46
  A 0.32 0.32 0.0 0 0 299.07 119.78
  L 299.07 192.34
  A 0.32 0.32 0.0 0 0 299.39 192.66
  L 452.85 192.66
  A 0.32 0.32 0.0 0 0 453.17 192.34
  L 453.17 119.78
  Z
  M 453.17 206.17
  A 0.36 0.36 0.0 0 0 452.81 205.81
  L 299.43 205.81
  A 0.36 0.36 0.0 0 0 299.07 206.17
  L 299.07 278.55
  A 0.36 0.36 0.0 0 0 299.43 278.91
  L 452.81 278.91
  A 0.36 0.36 0.0 0 0 453.17 278.55
  L 453.17 206.17
  Z"
/>
<path fill="#f4572a" d="
  M 229.52 48.25
  L 229.52 298.37
  A 0.35 0.35 0.0 0 1 229.17 298.72
  L 15.89 298.72
  A 0.35 0.35 0.0 0 1 15.54 298.37
  L 15.54 89.73
  A 0.35 0.35 0.0 0 1 15.89 89.38
  L 140.82 89.38
  A 0.35 0.35 0.0 0 0 141.05 89.29
  L 186.89 47.99
  A 0.35 0.35 0.0 0 1 187.12 47.90
  L 229.17 47.90
  A 0.35 0.35 0.0 0 1 229.52 48.25
  Z
  M 204.59 119.84
  A 0.37 0.37 0.0 0 0 204.22 119.47
  L 37.90 119.47
  A 0.37 0.37 0.0 0 0 37.53 119.84
  L 37.53 267.42
  A 0.37 0.37 0.0 0 0 37.90 267.79
  L 204.22 267.79
  A 0.37 0.37 0.0 0 0 204.59 267.42
  L 204.59 119.84
  Z"
/>
<rect fill="#f4572a" x="244.60" y="105.58" width="19.22" height="193.12" rx="0.34"/>
<path fill="#000000" d="
  M 204.59 267.42
  A 0.37 0.37 0.0 0 1 204.22 267.79
  L 37.90 267.79
  A 0.37 0.37 0.0 0 1 37.53 267.42
  L 37.53 119.84
  A 0.37 0.37 0.0 0 1 37.90 119.47
  L 204.22 119.47
  A 0.37 0.37 0.0 0 1 204.59 119.84
  L 204.59 267.42
  Z
  M 189.59 134.79
  A 0.34 0.34 0.0 0 0 189.25 134.45
  L 52.89 134.45
  A 0.34 0.34 0.0 0 0 52.55 134.79
  L 52.55 252.47
  A 0.34 0.34 0.0 0 0 52.89 252.81
  L 189.25 252.81
  A 0.34 0.34 0.0 0 0 189.59 252.47
  L 189.59 134.79
  Z"
/>
<rect fill="#000000" x="299.07" y="119.46" width="154.10" height="73.20" rx="0.32"/>
<path fill="#fec400" d="
  M 189.59 252.47
  A 0.34 0.34 0.0 0 1 189.25 252.81
  L 52.89 252.81
  A 0.34 0.34 0.0 0 1 52.55 252.47
  L 52.55 134.79
  A 0.34 0.34 0.0 0 1 52.89 134.45
  L 189.25 134.45
  A 0.34 0.34 0.0 0 1 189.59 134.79
  L 189.59 252.47
  Z
  M 154.48 159.45
  A 0.35 0.35 0.0 0 0 153.99 159.50
  L 117.06 204.35
  A 0.35 0.35 0.0 0 1 116.57 204.40
  L 82.87 178.28
  A 0.35 0.35 0.0 0 0 82.38 178.35
  L 73.61 189.65
  A 0.35 0.35 0.0 0 0 73.68 190.14
  L 118.89 225.18
  A 0.35 0.35 0.0 0 0 119.38 225.13
  L 165.57 169.04
  A 0.35 0.35 0.0 0 0 165.52 168.55
  L 154.48 159.45
  Z"
/>
<path fill="#000000" d="
  M 154.48 159.45
  L 165.52 168.55
  A 0.35 0.35 0.0 0 1 165.57 169.04
  L 119.38 225.13
  A 0.35 0.35 0.0 0 1 118.89 225.18
  L 73.68 190.14
  A 0.35 0.35 0.0 0 1 73.61 189.65
  L 82.38 178.35
  A 0.35 0.35 0.0 0 1 82.87 178.28
  L 116.57 204.40
  A 0.35 0.35 0.0 0 0 117.06 204.35
  L 153.99 159.50
  A 0.35 0.35 0.0 0 1 154.48 159.45
  Z"
/>
<path fill="#000000" d="
  M 453.17 278.55
  A 0.36 0.36 0.0 0 1 452.81 278.91
  L 299.43 278.91
  A 0.36 0.36 0.0 0 1 299.07 278.55
  L 299.07 206.17
  A 0.36 0.36 0.0 0 1 299.43 205.81
  L 452.81 205.81
  A 0.36 0.36 0.0 0 1 453.17 206.17
  L 453.17 278.55
  Z
  M 332.1915 221.2558
  A 0.43 0.43 0.0 0 0 331.7622 220.8251
  L 314.5223 220.7950
  A 0.43 0.43 0.0 0 0 314.0915 221.2242
  L 314.0685 234.4042
  A 0.43 0.43 0.0 0 0 314.4978 234.8349
  L 331.7377 234.8650
  A 0.43 0.43 0.0 0 0 332.1685 234.4358
  L 332.1915 221.2558
  Z
  M 368.59 221.21
  A 0.41 0.41 0.0 0 0 368.18 220.80
  L 347.58 220.80
  A 0.41 0.41 0.0 0 0 347.17 221.21
  L 347.17 234.45
  A 0.41 0.41 0.0 0 0 347.58 234.86
  L 368.18 234.86
  A 0.41 0.41 0.0 0 0 368.59 234.45
  L 368.59 221.21
  Z
  M 404.24 221.18
  A 0.37 0.37 0.0 0 0 403.87 220.81
  L 383.95 220.81
  A 0.37 0.37 0.0 0 0 383.58 221.18
  L 383.58 234.50
  A 0.37 0.37 0.0 0 0 383.95 234.87
  L 403.87 234.87
  A 0.37 0.37 0.0 0 0 404.24 234.50
  L 404.24 221.18
  Z
  M 438.17 221.19
  A 0.38 0.38 0.0 0 0 437.79 220.81
  L 419.61 220.81
  A 0.38 0.38 0.0 0 0 419.23 221.19
  L 419.23 234.49
  A 0.38 0.38 0.0 0 0 419.61 234.87
  L 437.79 234.87
  A 0.38 0.38 0.0 0 0 438.17 234.49
  L 438.17 221.19
  Z
  M 332.20 250.33
  A 0.48 0.48 0.0 0 0 331.72 249.85
  L 314.56 249.85
  A 0.48 0.48 0.0 0 0 314.08 250.33
  L 314.08 263.43
  A 0.48 0.48 0.0 0 0 314.56 263.91
  L 331.72 263.91
  A 0.48 0.48 0.0 0 0 332.20 263.43
  L 332.20 250.33
  Z
  M 368.59 250.27
  A 0.40 0.40 0.0 0 0 368.19 249.87
  L 347.57 249.87
  A 0.40 0.40 0.0 0 0 347.17 250.27
  L 347.17 263.51
  A 0.40 0.40 0.0 0 0 347.57 263.91
  L 368.19 263.91
  A 0.40 0.40 0.0 0 0 368.59 263.51
  L 368.59 250.27
  Z
  M 404.26 250.23
  A 0.36 0.36 0.0 0 0 403.90 249.87
  L 383.94 249.87
  A 0.36 0.36 0.0 0 0 383.58 250.23
  L 383.58 263.55
  A 0.36 0.36 0.0 0 0 383.94 263.91
  L 403.90 263.91
  A 0.36 0.36 0.0 0 0 404.26 263.55
  L 404.26 250.23
  Z
  M 438.19 250.24
  A 0.37 0.37 0.0 0 0 437.82 249.87
  L 419.60 249.87
  A 0.37 0.37 0.0 0 0 419.23 250.24
  L 419.23 263.54
  A 0.37 0.37 0.0 0 0 419.60 263.91
  L 437.82 263.91
  A 0.37 0.37 0.0 0 0 438.19 263.54
  L 438.19 250.24
  Z"
/>
<rect fill="#7682d8" x="-9.05" y="-7.02" transform="translate(323.13,227.83) rotate(0.1)" width="18.10" height="14.04" rx="0.43"/>
<rect fill="#7682d8" x="347.17" y="220.80" width="21.42" height="14.06" rx="0.41"/>
<rect fill="#7682d8" x="383.58" y="220.81" width="20.66" height="14.06" rx="0.37"/>
<rect fill="#7682d8" x="419.23" y="220.81" width="18.94" height="14.06" rx="0.38"/>
<rect fill="#7682d8" x="314.08" y="249.85" width="18.12" height="14.06" rx="0.48"/>
<rect fill="#7682d8" x="347.17" y="249.87" width="21.42" height="14.04" rx="0.40"/>
<rect fill="#7682d8" x="383.58" y="249.87" width="20.68" height="14.04" rx="0.36"/>
<rect fill="#7682d8" x="419.23" y="249.87" width="18.96" height="14.04" rx="0.37"/>
</svg>
