<?xml version="1.0" encoding="UTF-8" standalone="no"?>
<!DOCTYPE svg PUBLIC "-//W3C//DTD SVG 1.1//EN" "http://www.w3.org/Graphics/SVG/1.1/DTD/svg11.dtd">
<svg xmlns="http://www.w3.org/2000/svg" version="1.1" viewBox="0.00 0.00 182.00 151.00">
<path fill="#000000" d="
  M 68.47 0.00
  C 69.05 2.59 69.14 5.32 69.96 7.61
  Q 72.57 14.91 78.43 19.08
  C 85.49 24.12 94.76 24.45 101.92 19.67
  Q 112.00 12.95 112.51 0.00
  L 116.37 0.00
  Q 119.66 0.74 122.95 1.45
  Q 129.69 2.93 134.78 5.95
  C 142.92 10.78 151.06 18.19 157.17 24.68
  Q 159.62 27.28 177.15 45.90
  C 180.37 49.32 183.22 51.96 179.59 55.80
  Q 170.55 65.35 162.53 74.02
  C 160.07 76.68 156.83 80.05 153.94 77.22
  Q 145.19 68.66 144.68 68.18
  A 0.56 0.56 0.0 0 0 143.87 68.21
  Q 143.59 68.52 143.59 68.99
  Q 143.63 85.21 143.64 143.62
  A 5.88 5.86 67.1 0 1 141.97 147.75
  L 141.12 148.62
  A 7.04 7.02 -67.7 0 1 136.10 150.73
  L 45.02 150.73
  A 6.65 6.61 67.1 0 1 40.37 148.82
  L 39.36 147.81
  A 5.59 5.58 22.4 0 1 37.70 143.84
  Q 37.61 72.09 37.65 69.01
  Q 37.66 68.64 37.36 68.26
  A 0.57 0.56 47.6 0 0 36.52 68.22
  Q 29.89 74.94 27.40 77.14
  C 24.41 79.79 21.72 77.32 19.87 75.38
  Q 11.35 66.44 0.00 53.87
  L 0.00 50.63
  Q 11.35 38.06 23.25 25.50
  C 28.67 19.77 35.32 13.77 41.12 9.44
  C 46.59 5.36 52.76 2.45 59.53 1.12
  Q 62.16 0.60 64.77 0.00
  L 68.47 0.00
  Z"
/>
</svg>
