<?xml version="1.0" encoding="UTF-8" standalone="no"?>
<!DOCTYPE svg PUBLIC "-//W3C//DTD SVG 1.1//EN" "http://www.w3.org/Graphics/SVG/1.1/DTD/svg11.dtd">
<svg xmlns="http://www.w3.org/2000/svg" version="1.1" viewBox="0.00 0.00 191.00 191.00">
<path fill="#000000" d="
  M 0.00 11.47
  L 0.00 9.78
  C 0.71 3.43 6.59 -0.71 12.76 1.25
  Q 122.37 36.10 164.64 49.64
  Q 170.37 51.47 171.89 52.75
  C 176.11 56.30 176.39 62.69 172.71 66.60
  Q 171.19 68.23 166.34 70.31
  Q 138.55 82.25 122.40 89.22
  A 0.39 0.39 0.0 0 0 122.28 89.86
  Q 138.39 105.97 181.86 149.41
  C 187.54 155.08 191.85 158.30 189.37 165.21
  Q 188.62 167.29 184.73 171.04
  Q 184.30 171.44 171.05 184.72
  C 166.18 189.60 163.18 192.23 157.19 190.08
  Q 155.58 189.50 152.21 186.13
  Q 109.24 143.15 89.15 123.01
  A 0.41 0.40 33.6 0 0 88.49 123.14
  Q 81.03 140.40 69.62 166.94
  Q 67.45 172.00 65.75 173.52
  C 61.82 177.06 55.63 176.82 52.07 172.67
  Q 50.70 171.07 49.07 165.97
  Q 24.42 88.65 0.00 11.47
  Z"
/>
</svg>
